<svg version="1.1" id="Layer_1" xmlns="http://www.w3.org/2000/svg" xmlns:xlink="http://www.w3.org/1999/xlink" x="0px" y="0px"
	 width="100%" viewBox="0 0 1557 672" enable-background="new 0 0 1557 672" xml:space="preserve">
<path fill="#212224" opacity="1.000000" stroke="none" 
	d="
M922.079041,337.500000 
	C922.088379,352.658173 922.134888,367.816467 922.096680,382.974518 
	C922.058228,398.208588 921.407593,394.991943 934.235352,395.093323 
	C942.323792,395.157257 942.709961,394.741547 942.718994,386.628754 
	C942.744080,364.141357 942.701965,341.653931 942.721985,319.166534 
	C942.723816,317.127106 942.981445,315.087860 943.120239,313.048553 
	C943.544617,312.977417 943.969055,312.906281 944.393433,312.835144 
	C945.361328,314.678986 946.397644,316.490509 947.286316,318.371735 
	C955.111389,334.936279 963.297119,351.346802 970.531189,368.166351 
	C973.525696,375.128937 978.372070,374.838409 984.197571,375.074371 
	C989.726196,375.298340 992.144714,372.686737 994.219299,368.092896 
	C1002.375488,350.032440 1010.825256,332.104431 1019.192871,314.139771 
	C1019.692871,313.066315 1020.427185,312.102081 1021.791870,309.886841 
	C1021.935547,313.154266 1022.082214,314.954865 1022.083679,316.755585 
	C1022.101440,338.743195 1022.083801,360.730774 1022.105286,382.718384 
	C1022.117493,395.195618 1022.142273,395.195557 1034.709229,395.087097 
	C1042.434204,395.020447 1042.827026,394.638245 1042.832031,386.775848 
	C1042.852783,354.627228 1042.863037,322.478638 1042.867432,290.330017 
	C1042.867676,288.498871 1042.781128,286.667603 1042.729614,284.836578 
	C1042.638184,281.575806 1040.991821,280.006592 1037.697388,280.019684 
	C1031.867798,280.042908 1026.029663,280.156525 1020.210693,279.891052 
	C1015.740295,279.687103 1013.303955,281.494232 1011.483154,285.605896 
	C1003.054810,304.637848 994.347168,323.546234 985.704041,342.482635 
	C984.980957,344.066711 983.993347,345.530029 982.561096,348.046753 
	C981.186218,345.542786 980.256348,344.069824 979.534485,342.501160 
	C970.691772,323.287415 961.815430,304.088501 953.117188,284.809326 
	C951.508362,281.243500 949.196899,279.789032 945.391174,279.901917 
	C939.898865,280.064789 934.398132,279.917023 928.901855,279.979858 
	C922.788513,280.049774 922.120178,280.707184 922.102966,287.027893 
	C922.057983,303.518524 922.081177,320.009277 922.079041,337.500000 
M320.444061,318.972015 
	C321.885254,315.997498 323.326416,313.023010 324.767609,310.048492 
	C325.179047,310.174164 325.590515,310.299835 326.001953,310.425507 
	C326.001953,312.228455 326.002777,314.031372 326.001831,315.834320 
	C325.990295,337.654114 325.984650,359.473907 325.964661,381.293701 
	C325.951233,395.951294 325.937256,395.867188 340.712433,395.020966 
	C344.550476,394.801117 346.072296,393.099091 346.044952,389.429840 
	C345.990326,382.101624 346.035889,374.772644 346.035248,367.444000 
	C346.032928,340.627289 346.051514,313.810516 346.007935,286.993866 
	C345.997833,280.767639 345.239746,280.067749 339.111084,279.996185 
	C334.447906,279.941742 329.758392,280.283234 325.126373,279.898071 
	C319.584290,279.437256 316.768524,281.847382 314.589752,286.816406 
	C306.766663,304.658173 298.551208,322.328278 290.432098,340.039429 
	C289.370453,342.355347 288.006409,344.532623 286.257538,347.735321 
	C284.889038,345.098999 284.013611,343.558563 283.269653,341.957031 
	C274.499573,323.077606 265.675171,304.222656 257.054779,285.274994 
	C255.287476,281.390472 252.826736,279.686127 248.578979,279.894043 
	C243.759979,280.129944 238.920868,279.942596 234.090622,279.964661 
	C226.372330,279.999908 225.914413,280.433197 225.912277,288.230621 
	C225.903519,320.210938 225.925018,352.191254 225.923996,384.171570 
	C225.923645,395.078003 225.908371,395.078003 237.022827,395.066650 
	C245.643478,395.057831 245.931671,394.857666 245.957672,385.993530 
	C246.026077,362.674866 246.001541,339.355957 246.039108,316.037170 
	C246.041733,314.409302 246.249954,312.781799 246.362579,311.154114 
	C248.294907,312.736053 249.171829,314.317993 249.944458,315.949341 
	C258.142334,333.258698 266.555450,350.472168 274.377930,367.949860 
	C276.954681,373.707062 280.639557,375.029755 286.430267,375.095673 
	C292.328156,375.162720 295.482910,372.991699 297.845459,367.698059 
	C305.039490,351.578583 312.665222,335.651794 320.444061,318.972015 
M590.006165,346.500000 
	C590.015015,360.654907 590.007141,374.809814 590.040588,388.964661 
	C590.054504,394.868530 590.823242,395.741394 596.612915,395.670563 
	C610.429810,395.501617 624.260071,395.518372 638.056946,394.866577 
	C654.141479,394.106720 668.187439,388.040253 677.718140,374.805359 
	C691.101685,356.220062 692.287170,335.227509 685.242798,314.214386 
	C678.108032,292.931763 659.722717,280.601410 637.141602,280.101105 
	C623.491882,279.798706 609.826172,280.148773 596.181152,279.747284 
	C591.166077,279.599701 589.909485,281.367859 589.952393,286.049072 
	C590.133911,305.864563 590.018005,325.682770 590.006165,346.500000 
M1347.857544,395.029510 
	C1349.689331,395.052826 1351.521362,395.100800 1353.353027,395.095367 
	C1362.984253,395.066925 1362.988403,395.062195 1362.989868,385.299988 
	C1362.994629,354.986908 1363.067627,324.673615 1362.968872,294.360870 
	C1362.917847,278.680450 1365.322388,279.975983 1348.002197,279.949615 
	C1343.523071,279.942780 1342.422485,282.010620 1342.465210,286.156158 
	C1342.585327,297.804779 1342.273193,309.457214 1342.256226,321.108307 
	C1342.250122,325.297455 1340.433350,327.158142 1336.222168,327.137390 
	C1322.232056,327.068451 1308.240479,327.038177 1294.251343,327.182404 
	C1289.476196,327.231628 1287.761597,325.142578 1287.840576,320.530151 
	C1288.002930,311.039520 1287.844849,301.543823 1287.867676,292.050323 
	C1287.896973,279.865997 1287.917847,279.866058 1275.538940,279.934296 
	C1267.444336,279.978912 1267.073242,280.346741 1267.074707,288.415039 
	C1267.080322,319.394226 1267.072754,350.373413 1267.102539,381.352600 
	C1267.117065,396.400940 1265.873901,395.035797 1280.842896,395.058228 
	C1287.153076,395.067688 1287.867554,394.274078 1287.887451,387.676270 
	C1287.922485,376.017670 1287.835815,364.358582 1287.896484,352.700195 
	C1287.927490,346.753845 1288.639771,346.036957 1294.548218,346.009186 
	C1308.038818,345.945740 1321.530029,345.945129 1335.020752,346.000458 
	C1341.486450,346.027008 1342.124146,346.662750 1342.271362,353.223602 
	C1342.540161,365.201294 1342.702637,377.181335 1342.905518,389.160492 
	C1342.953735,392.012360 1343.405273,394.570801 1347.857544,395.029510 
M1170.491455,322.805786 
	C1172.700562,329.973602 1177.631836,334.877655 1184.177734,337.924103 
	C1189.430298,340.368561 1195.020142,342.150848 1200.567139,343.885498 
	C1208.977417,346.515442 1217.578369,348.562653 1225.908081,351.413208 
	C1231.136353,353.202454 1234.456543,357.225677 1234.597046,363.094879 
	C1234.738892,369.018402 1231.730835,373.214661 1226.785767,376.120453 
	C1218.194824,381.168640 1201.736450,380.231018 1193.920166,374.043304 
	C1191.758301,372.331848 1189.760986,370.101166 1188.439453,367.695923 
	C1183.850098,359.342926 1183.975464,359.272766 1174.380859,361.088684 
	C1173.071167,361.336548 1171.775269,361.692413 1170.455200,361.843597 
	C1166.767456,362.265869 1165.166748,364.609070 1166.497559,367.743866 
	C1168.804932,373.179413 1170.792114,379.280212 1174.699341,383.414124 
	C1190.354004,399.976929 1224.413574,402.092102 1242.672119,388.376129 
	C1252.791016,380.774811 1256.805176,370.659912 1255.470337,358.203461 
	C1254.086914,345.293518 1246.478271,337.438354 1234.882935,332.969055 
	C1230.700684,331.357086 1226.288940,330.337830 1221.976318,329.067261 
	C1213.675171,326.621521 1205.296997,324.407745 1197.095581,321.664307 
	C1192.652710,320.178131 1190.199097,316.583527 1189.896240,311.756989 
	C1189.580322,306.721954 1191.086304,302.392365 1195.552246,299.767334 
	C1204.714355,294.382080 1214.326172,294.377441 1223.796387,298.694214 
	C1226.346680,299.856720 1228.652466,302.327484 1230.212158,304.750214 
	C1235.349731,312.731628 1235.198730,312.829956 1244.782715,311.202484 
	C1246.096313,310.979431 1247.408203,310.745270 1248.719360,310.508240 
	C1252.014648,309.912689 1253.074829,308.045197 1252.399170,304.752014 
	C1250.838989,297.148315 1246.554321,291.383942 1240.503784,286.856506 
	C1226.286743,276.218231 1210.372314,276.109344 1194.206299,280.400543 
	C1174.436157,285.648407 1165.247192,302.113373 1170.491455,322.805786 
M1108.909790,308.928253 
	C1118.233398,333.013000 1127.645996,357.063782 1136.849365,381.194366 
	C1142.983276,397.277222 1139.778687,394.985992 1157.733887,394.985504 
	C1163.348877,394.985352 1163.851562,394.089447 1161.718384,388.703705 
	C1155.827271,373.830261 1149.886963,358.976288 1143.958984,344.117432 
	C1136.301636,324.923889 1128.713989,305.701721 1120.879883,286.580627 
	C1119.896729,284.181030 1117.773438,280.710419 1115.876953,280.503845 
	C1109.483765,279.807495 1102.518066,279.037354 1096.654663,280.972229 
	C1093.550903,281.996429 1092.269775,288.553406 1090.177490,292.618591 
	C1089.949585,293.061188 1089.798584,293.543304 1089.612305,294.007294 
	C1076.700684,326.172150 1063.823364,358.350861 1050.833252,390.483978 
	C1049.253418,394.392059 1050.523438,395.755493 1054.349365,395.727631 
	C1057.682129,395.703400 1061.017578,395.595520 1064.347168,395.688751 
	C1068.958252,395.817841 1071.537964,393.783936 1073.210571,389.359283 
	C1083.345581,362.549866 1093.717041,335.829926 1104.030518,309.088196 
	C1104.543335,307.758392 1105.250488,306.503601 1106.289551,304.330536 
	C1107.415039,306.179077 1108.047485,307.218018 1108.909790,308.928253 
M427.800873,349.742920 
	C432.244385,361.062927 436.676361,372.387482 441.134521,383.701752 
	C446.039032,396.148773 446.049561,396.144592 459.496674,395.659821 
	C466.600586,395.403748 467.406036,394.207916 464.740204,387.569183 
	C452.325531,356.653534 439.916107,325.735718 427.444122,294.843170 
	C421.271423,279.553619 421.213226,279.706512 404.667786,279.845795 
	C400.180817,279.883575 397.702911,281.440582 396.065582,285.661041 
	C387.992401,306.470856 379.704865,327.197601 371.463074,347.941772 
	C365.927643,361.874207 360.306671,375.772766 354.799500,389.716309 
	C352.963287,394.365387 353.658051,395.438660 358.525635,395.690857 
	C361.515350,395.845734 364.522125,395.637238 367.517883,395.717194 
	C372.275604,395.844177 375.014679,393.817963 376.763855,389.168518 
	C386.792938,362.510529 397.095856,335.955566 407.328339,309.374298 
	C407.893066,307.907318 408.658569,306.517639 409.941498,303.796082 
	C416.138153,319.747375 421.825500,334.387695 427.800873,349.742920 
M1379.909912,369.378937 
	C1377.131592,376.337830 1374.425171,383.326660 1371.546143,390.243622 
	C1369.985474,393.993347 1371.280396,395.619507 1375.089111,395.678436 
	C1378.585083,395.732574 1382.088013,395.574249 1385.577637,395.732513 
	C1389.705688,395.919739 1391.850220,393.989685 1393.304810,390.186005 
	C1403.533936,363.437744 1413.925049,336.751556 1424.280640,310.051819 
	C1424.907471,308.435730 1425.672729,306.873322 1426.925903,304.034485 
	C1428.218140,306.859680 1429.026733,308.418732 1429.661011,310.045746 
	C1438.974365,333.935364 1448.131226,357.886963 1457.607178,381.711700 
	C1463.789673,397.256287 1459.845215,394.943268 1477.313599,395.088196 
	C1484.517212,395.147980 1484.819336,394.636139 1482.226685,388.191864 
	C1469.547974,356.678711 1456.949219,325.133087 1444.144897,293.671021 
	C1437.667969,277.755951 1441.403564,280.270691 1423.527222,279.810120 
	C1417.840942,279.663574 1414.826416,281.603180 1412.723755,286.990997 
	C1402.069580,314.289917 1391.060791,341.450409 1379.909912,369.378937 
M174.372208,285.136292 
	C173.114349,281.219574 170.368942,279.723663 166.350998,279.908112 
	C162.859497,280.068420 159.335480,280.154022 155.859421,279.866547 
	C150.862503,279.453217 148.394867,281.776398 146.641922,286.294556 
	C139.471130,304.777069 131.997742,323.142120 124.652794,341.557190 
	C118.480263,357.032867 112.272484,372.494934 106.200546,388.010071 
	C103.714203,394.363190 104.314308,395.060455 111.323029,395.117340 
	C113.822182,395.137634 116.334106,394.933838 118.818565,395.120392 
	C123.302612,395.457092 125.733803,393.572205 127.361237,389.292236 
	C137.368683,362.974060 147.607101,336.743652 157.793350,310.493622 
	C158.472656,308.743042 159.354980,307.071289 160.571045,304.434418 
	C161.692780,306.618988 162.374023,307.707672 162.837036,308.882416 
	C172.733505,333.991455 182.590012,359.116302 192.488785,384.224457 
	C197.430099,396.758057 197.461121,396.745819 211.041443,395.496155 
	C217.948288,394.860535 218.271408,394.259674 215.696945,387.865112 
	C202.007202,353.861847 188.348297,319.846191 174.372208,285.136292 
M506.589020,293.908997 
	C501.392090,282.573364 492.943604,277.349670 480.353302,280.036194 
	C478.656189,280.398315 475.908936,280.741211 475.620789,281.691315 
	C475.151855,283.237488 475.859009,285.585327 476.860413,287.056763 
	C481.636353,294.074188 486.729248,300.874756 491.617676,307.816986 
	C510.884644,335.178955 530.080566,362.591125 549.437073,389.889496 
	C550.875122,391.917603 553.225464,394.305054 555.409729,394.597351 
	C560.641174,395.297333 566.036377,395.048248 571.346008,394.786072 
	C574.510986,394.629791 575.183472,392.509674 573.730042,389.822754 
	C573.020020,388.510162 572.130493,387.289703 571.270386,386.063995 
	C549.850159,355.539856 528.423035,325.020538 506.589020,293.908997 
M792.573364,313.951996 
	C797.648376,321.163422 802.722717,328.375305 807.798523,335.586151 
	C820.824463,354.090790 833.875000,372.578156 846.852905,391.116394 
	C848.935852,394.091858 851.360657,395.756805 855.186829,395.368561 
	C858.317261,395.050964 861.530273,395.501770 864.648865,395.128845 
	C866.621033,394.893005 869.569275,394.221344 870.110352,392.923920 
	C870.705627,391.496368 869.446228,388.846466 868.305115,387.210022 
	C846.128845,355.407410 823.842224,323.681702 801.599426,291.925415 
	C792.865845,279.456299 792.887390,279.390778 777.314880,279.987579 
	C775.468567,280.058350 772.411865,280.650116 772.110596,281.656891 
	C771.617676,283.304626 772.459900,285.815796 773.555115,287.397705 
	C779.615906,296.151642 785.923584,304.734680 792.573364,313.951996 
M720.906738,354.500000 
	C720.890869,333.679413 720.882019,312.858826 720.856567,292.038239 
	C720.841736,279.906281 720.829712,279.906311 708.540405,279.938416 
	C700.388916,279.959747 700.019897,280.319824 700.021484,288.343994 
	C700.027466,319.658081 700.057739,350.972229 700.034912,382.286285 
	C700.023376,398.148468 699.637268,395.275452 713.629211,395.286987 
	C720.068359,395.292297 720.809570,394.345764 720.850098,387.979980 
	C720.918945,377.153625 720.892822,366.326691 720.906738,354.500000 
M907.077820,379.493591 
	C907.071289,350.531799 907.061340,321.570038 907.059692,292.608246 
	C907.058960,279.033539 907.963623,279.918854 894.287903,279.981110 
	C887.553528,280.011749 886.896851,280.662903 886.850708,287.487305 
	C886.717834,307.125977 886.569458,326.765015 886.571228,346.403931 
	C886.572449,360.541504 886.676086,374.682739 887.078308,388.812531 
	C887.135742,390.827179 888.963196,394.344330 890.274719,394.493103 
	C895.141296,395.045197 900.586914,395.582947 904.872742,393.826660 
	C906.764404,393.051544 906.422363,386.772736 907.039917,382.983673 
	C907.172180,382.172150 907.069031,381.322235 907.077820,379.493591 
M851.174072,303.500031 
	C851.182617,310.488068 851.204163,317.476105 851.197327,324.464142 
	C851.173950,348.374756 851.165283,348.378265 865.154480,367.752014 
	C866.826416,370.067505 868.585999,372.319641 870.774231,375.224152 
	C871.320618,373.554810 871.688110,372.954620 871.689209,372.353790 
	C871.742371,343.238129 871.762146,314.122437 871.791443,285.006744 
	C871.795044,281.424072 869.904907,279.932892 866.458557,279.985992 
	C863.132141,280.037262 859.803162,280.041931 856.477173,279.974518 
	C852.635254,279.896667 851.123596,281.834747 851.176575,285.529785 
	C851.257751,291.185364 851.180420,296.843201 851.174072,303.500031 
M474.363617,359.276367 
	C474.424866,366.928192 474.449982,374.580475 474.555420,382.231689 
	C474.735382,395.290680 474.756042,395.153137 488.018738,395.104095 
	C492.784698,395.086456 495.028931,393.609192 494.989868,388.509155 
	C494.845734,369.693146 495.030243,350.874603 494.879242,332.058685 
	C494.860413,329.711121 494.072174,327.046112 492.786438,325.089355 
	C487.759827,317.439301 482.404236,310.004730 477.124786,302.522583 
	C476.633667,301.826569 475.816650,301.360504 474.344238,300.093536 
	C474.344238,320.215363 474.344238,339.305145 474.363617,359.276367 
M575.152039,312.500000 
	C575.134338,305.844360 575.098022,299.188721 575.102844,292.533081 
	C575.112610,279.061035 576.019409,279.901642 562.268127,280.002441 
	C555.654236,280.050934 555.008789,280.672913 555.001343,287.097351 
	C554.980164,305.400360 554.985596,323.703522 555.059265,342.006287 
	C555.067810,344.135345 554.895081,346.707123 555.955750,348.315948 
	C561.520142,356.756042 567.451538,364.954285 573.288757,373.213013 
	C573.381958,373.344818 573.897400,373.178192 575.151062,373.070465 
	C575.151062,353.265320 575.151062,333.382660 575.152039,312.500000 
M771.019043,372.499939 
	C771.018494,375.829620 771.015930,379.159332 771.017700,382.489014 
	C771.024597,395.359863 771.025085,395.359863 783.811035,395.114471 
	C790.282227,394.990265 791.037231,394.320679 791.068970,387.889923 
	C791.133850,374.738098 791.097595,361.585785 791.113525,348.433685 
	C791.139038,327.400696 791.149658,327.395782 778.942383,310.033905 
	C776.897827,307.126007 774.762878,304.281769 772.669678,301.408142 
	C772.120483,301.574036 771.571228,301.739899 771.022034,301.905792 
	C771.022034,325.103851 771.022034,348.301910 771.019043,372.499939 
z"/>
<path fill="#010101" opacity="1.000000" stroke="none" 
	d="
M922.078064,337.000000 
	C922.081177,320.009277 922.057983,303.518524 922.102966,287.027893 
	C922.120178,280.707184 922.788513,280.049774 928.901855,279.979858 
	C934.398132,279.917023 939.898865,280.064789 945.391174,279.901917 
	C949.196899,279.789032 951.508362,281.243500 953.117188,284.809326 
	C961.815430,304.088501 970.691772,323.287415 979.534485,342.501160 
	C980.256348,344.069824 981.186218,345.542786 982.561096,348.046753 
	C983.993347,345.530029 984.980957,344.066711 985.704041,342.482635 
	C994.347168,323.546234 1003.054810,304.637848 1011.483154,285.605896 
	C1013.303955,281.494232 1015.740295,279.687103 1020.210693,279.891052 
	C1026.029663,280.156525 1031.867798,280.042908 1037.697388,280.019684 
	C1040.991821,280.006592 1042.638184,281.575806 1042.729614,284.836578 
	C1042.781128,286.667603 1042.867676,288.498871 1042.867432,290.330017 
	C1042.863037,322.478638 1042.852783,354.627228 1042.832031,386.775848 
	C1042.827026,394.638245 1042.434204,395.020447 1034.709229,395.087097 
	C1022.142273,395.195557 1022.117493,395.195618 1022.105286,382.718384 
	C1022.083801,360.730774 1022.101440,338.743195 1022.083679,316.755585 
	C1022.082214,314.954865 1021.935547,313.154266 1021.791870,309.886841 
	C1020.427185,312.102081 1019.692871,313.066315 1019.192871,314.139771 
	C1010.825256,332.104431 1002.375488,350.032440 994.219299,368.092896 
	C992.144714,372.686737 989.726196,375.298340 984.197571,375.074371 
	C978.372070,374.838409 973.525696,375.128937 970.531189,368.166351 
	C963.297119,351.346802 955.111389,334.936279 947.286316,318.371735 
	C946.397644,316.490509 945.361328,314.678986 944.393433,312.835144 
	C943.969055,312.906281 943.544617,312.977417 943.120239,313.048553 
	C942.981445,315.087860 942.723816,317.127106 942.721985,319.166534 
	C942.701965,341.653931 942.744080,364.141357 942.718994,386.628754 
	C942.709961,394.741547 942.323792,395.157257 934.235352,395.093323 
	C921.407593,394.991943 922.058228,398.208588 922.096680,382.974518 
	C922.134888,367.816467 922.088379,352.658173 922.078064,337.000000 
M942.514221,309.540192 
	C942.514221,309.540192 942.501038,309.492249 942.514221,309.540192 
z"/>
<path fill="#010101" opacity="1.000000" stroke="none" 
	d="
M320.283508,319.311005 
	C312.665222,335.651794 305.039490,351.578583 297.845459,367.698059 
	C295.482910,372.991699 292.328156,375.162720 286.430267,375.095673 
	C280.639557,375.029755 276.954681,373.707062 274.377930,367.949860 
	C266.555450,350.472168 258.142334,333.258698 249.944458,315.949341 
	C249.171829,314.317993 248.294907,312.736053 246.362579,311.154114 
	C246.249954,312.781799 246.041733,314.409302 246.039108,316.037170 
	C246.001541,339.355957 246.026077,362.674866 245.957672,385.993530 
	C245.931671,394.857666 245.643478,395.057831 237.022827,395.066650 
	C225.908371,395.078003 225.923645,395.078003 225.923996,384.171570 
	C225.925018,352.191254 225.903519,320.210938 225.912277,288.230621 
	C225.914413,280.433197 226.372330,279.999908 234.090622,279.964661 
	C238.920868,279.942596 243.759979,280.129944 248.578979,279.894043 
	C252.826736,279.686127 255.287476,281.390472 257.054779,285.274994 
	C265.675171,304.222656 274.499573,323.077606 283.269653,341.957031 
	C284.013611,343.558563 284.889038,345.098999 286.257538,347.735321 
	C288.006409,344.532623 289.370453,342.355347 290.432098,340.039429 
	C298.551208,322.328278 306.766663,304.658173 314.589752,286.816406 
	C316.768524,281.847382 319.584290,279.437256 325.126373,279.898071 
	C329.758392,280.283234 334.447906,279.941742 339.111084,279.996185 
	C345.239746,280.067749 345.997833,280.767639 346.007935,286.993866 
	C346.051514,313.810516 346.032928,340.627289 346.035248,367.444000 
	C346.035889,374.772644 345.990326,382.101624 346.044952,389.429840 
	C346.072296,393.099091 344.550476,394.801117 340.712433,395.020966 
	C325.937256,395.867188 325.951233,395.951294 325.964661,381.293701 
	C325.984650,359.473907 325.990295,337.654114 326.001831,315.834320 
	C326.002777,314.031372 326.001953,312.228455 326.001953,310.425507 
	C325.590515,310.299835 325.179047,310.174164 324.767609,310.048492 
	C323.326416,313.023010 321.885254,315.997498 320.283508,319.311005 
z"/>
<path fill="#010101" opacity="1.000000" stroke="none" 
	d="
M590.008484,346.000000
	C590.018005,325.682770 590.133911,305.864563 589.952393,286.049072
	C589.909485,281.367859 591.166077,279.599701 596.181152,279.747284
	C609.826172,280.148773 623.491882,279.798706 637.141602,280.101105
	C659.722717,280.601410 678.108032,292.931763 685.242798,314.214386
	C692.287170,335.227509 691.101685,356.220062 677.718140,374.805359
	C668.187439,388.040253 654.141479,394.106720 638.056946,394.866577
	C624.260071,395.518372 610.429810,395.501617 596.612915,395.670563
	C590.823242,395.741394 590.054504,394.868530 590.040588,388.964661
	C590.007141,374.809814 590.015015,360.654907 590.008484,346.000000
z"/>
<path fill="#010101" opacity="1.000000" stroke="none" 
	d="
M1347.412964,394.990723 
	C1343.405273,394.570801 1342.953735,392.012360 1342.905518,389.160492 
	C1342.702637,377.181335 1342.540161,365.201294 1342.271362,353.223602 
	C1342.124146,346.662750 1341.486450,346.027008 1335.020752,346.000458 
	C1321.530029,345.945129 1308.038818,345.945740 1294.548218,346.009186 
	C1288.639771,346.036957 1287.927490,346.753845 1287.896484,352.700195 
	C1287.835815,364.358582 1287.922485,376.017670 1287.887451,387.676270 
	C1287.867554,394.274078 1287.153076,395.067688 1280.842896,395.058228 
	C1265.873901,395.035797 1267.117065,396.400940 1267.102539,381.352600 
	C1267.072754,350.373413 1267.080322,319.394226 1267.074707,288.415039 
	C1267.073242,280.346741 1267.444336,279.978912 1275.538940,279.934296 
	C1287.917847,279.866058 1287.896973,279.865997 1287.867676,292.050323 
	C1287.844849,301.543823 1288.002930,311.039520 1287.840576,320.530151 
	C1287.761597,325.142578 1289.476196,327.231628 1294.251343,327.182404 
	C1308.240479,327.038177 1322.232056,327.068451 1336.222168,327.137390 
	C1340.433350,327.158142 1342.250122,325.297455 1342.256226,321.108307 
	C1342.273193,309.457214 1342.585327,297.804779 1342.465210,286.156158 
	C1342.422485,282.010620 1343.523071,279.942780 1348.002197,279.949615 
	C1365.322388,279.975983 1362.917847,278.680450 1362.968872,294.360870 
	C1363.067627,324.673615 1362.994629,354.986908 1362.989868,385.299988 
	C1362.988403,395.062195 1362.984253,395.066925 1353.353027,395.095367 
	C1351.521362,395.100800 1349.689331,395.052826 1347.412964,394.990723 
z"/>
<path fill="#010101" opacity="1.000000" stroke="none" 
	d="
M1170.364868,322.419983 
	C1165.247192,302.113373 1174.436157,285.648407 1194.206299,280.400543 
	C1210.372314,276.109344 1226.286743,276.218231 1240.503784,286.856506 
	C1246.554321,291.383942 1250.838989,297.148315 1252.399170,304.752014 
	C1253.074829,308.045197 1252.014648,309.912689 1248.719360,310.508240 
	C1247.408203,310.745270 1246.096313,310.979431 1244.782715,311.202484 
	C1235.198730,312.829956 1235.349731,312.731628 1230.212158,304.750214 
	C1228.652466,302.327484 1226.346680,299.856720 1223.796387,298.694214 
	C1214.326172,294.377441 1204.714355,294.382080 1195.552246,299.767334 
	C1191.086304,302.392365 1189.580322,306.721954 1189.896240,311.756989 
	C1190.199097,316.583527 1192.652710,320.178131 1197.095581,321.664307 
	C1205.296997,324.407745 1213.675171,326.621521 1221.976318,329.067261 
	C1226.288940,330.337830 1230.700684,331.357086 1234.882935,332.969055 
	C1246.478271,337.438354 1254.086914,345.293518 1255.470337,358.203461 
	C1256.805176,370.659912 1252.791016,380.774811 1242.672119,388.376129 
	C1224.413574,402.092102 1190.354004,399.976929 1174.699341,383.414124 
	C1170.792114,379.280212 1168.804932,373.179413 1166.497559,367.743866 
	C1165.166748,364.609070 1166.767456,362.265869 1170.455200,361.843597 
	C1171.775269,361.692413 1173.071167,361.336548 1174.380859,361.088684 
	C1183.975464,359.272766 1183.850098,359.342926 1188.439453,367.695923 
	C1189.760986,370.101166 1191.758301,372.331848 1193.920166,374.043304 
	C1201.736450,380.231018 1218.194824,381.168640 1226.785767,376.120453 
	C1231.730835,373.214661 1234.738892,369.018402 1234.597046,363.094879 
	C1234.456543,357.225677 1231.136353,353.202454 1225.908081,351.413208 
	C1217.578369,348.562653 1208.977417,346.515442 1200.567139,343.885498 
	C1195.020142,342.150848 1189.430298,340.368561 1184.177734,337.924103 
	C1177.631836,334.877655 1172.700562,329.973602 1170.364868,322.419983 
z"/>
<path fill="#010101" opacity="1.000000" stroke="none" 
	d="
M1108.794922,308.592590 
	C1108.047485,307.218018 1107.415039,306.179077 1106.289551,304.330536 
	C1105.250488,306.503601 1104.543335,307.758392 1104.030518,309.088196 
	C1093.717041,335.829926 1083.345581,362.549866 1073.210571,389.359283 
	C1071.537964,393.783936 1068.958252,395.817841 1064.347168,395.688751 
	C1061.017578,395.595520 1057.682129,395.703400 1054.349365,395.727631 
	C1050.523438,395.755493 1049.253418,394.392059 1050.833252,390.483978 
	C1063.823364,358.350861 1076.700684,326.172150 1089.612305,294.007294 
	C1089.798584,293.543304 1089.949585,293.061188 1090.177490,292.618591 
	C1092.269775,288.553406 1093.550903,281.996429 1096.654663,280.972229 
	C1102.518066,279.037354 1109.483765,279.807495 1115.876953,280.503845 
	C1117.773438,280.710419 1119.896729,284.181030 1120.879883,286.580627 
	C1128.713989,305.701721 1136.301636,324.923889 1143.958984,344.117432 
	C1149.886963,358.976288 1155.827271,373.830261 1161.718384,388.703705 
	C1163.851562,394.089447 1163.348877,394.985352 1157.733887,394.985504 
	C1139.778687,394.985992 1142.983276,397.277222 1136.849365,381.194366 
	C1127.645996,357.063782 1118.233398,333.013000 1108.794922,308.592590 
z"/>
<path fill="#010101" opacity="1.000000" stroke="none" 
	d="
M427.656860,349.385468 
	C421.825500,334.387695 416.138153,319.747375 409.941498,303.796082 
	C408.658569,306.517639 407.893066,307.907318 407.328339,309.374298 
	C397.095856,335.955566 386.792938,362.510529 376.763855,389.168518 
	C375.014679,393.817963 372.275604,395.844177 367.517883,395.717194 
	C364.522125,395.637238 361.515350,395.845734 358.525635,395.690857 
	C353.658051,395.438660 352.963287,394.365387 354.799500,389.716309 
	C360.306671,375.772766 365.927643,361.874207 371.463074,347.941772 
	C379.704865,327.197601 387.992401,306.470856 396.065582,285.661041 
	C397.702911,281.440582 400.180817,279.883575 404.667786,279.845795 
	C421.213226,279.706512 421.271423,279.553619 427.444122,294.843170 
	C439.916107,325.735718 452.325531,356.653534 464.740204,387.569183 
	C467.406036,394.207916 466.600586,395.403748 459.496674,395.659821 
	C446.049561,396.144592 446.039032,396.148773 441.134521,383.701752 
	C436.676361,372.387482 432.244385,361.062927 427.656860,349.385468 
z"/>
<path fill="#010101" opacity="1.000000" stroke="none" 
	d="
M1380.042969,369.019165 
	C1391.060791,341.450409 1402.069580,314.289917 1412.723755,286.990997 
	C1414.826416,281.603180 1417.840942,279.663574 1423.527222,279.810120 
	C1441.403564,280.270691 1437.667969,277.755951 1444.144897,293.671021 
	C1456.949219,325.133087 1469.547974,356.678711 1482.226685,388.191864 
	C1484.819336,394.636139 1484.517212,395.147980 1477.313599,395.088196 
	C1459.845215,394.943268 1463.789673,397.256287 1457.607178,381.711700 
	C1448.131226,357.886963 1438.974365,333.935364 1429.661011,310.045746 
	C1429.026733,308.418732 1428.218140,306.859680 1426.925903,304.034485 
	C1425.672729,306.873322 1424.907471,308.435730 1424.280640,310.051819 
	C1413.925049,336.751556 1403.533936,363.437744 1393.304810,390.186005 
	C1391.850220,393.989685 1389.705688,395.919739 1385.577637,395.732513 
	C1382.088013,395.574249 1378.585083,395.732574 1375.089111,395.678436 
	C1371.280396,395.619507 1369.985474,393.993347 1371.546143,390.243622 
	C1374.425171,383.326660 1377.131592,376.337830 1380.042969,369.019165 
z"/>
<path fill="#010101" opacity="1.000000" stroke="none" 
	d="
M174.525467,285.485535 
	C188.348297,319.846191 202.007202,353.861847 215.696945,387.865112 
	C218.271408,394.259674 217.948288,394.860535 211.041443,395.496155 
	C197.461121,396.745819 197.430099,396.758057 192.488785,384.224457 
	C182.590012,359.116302 172.733505,333.991455 162.837036,308.882416 
	C162.374023,307.707672 161.692780,306.618988 160.571045,304.434418 
	C159.354980,307.071289 158.472656,308.743042 157.793350,310.493622 
	C147.607101,336.743652 137.368683,362.974060 127.361237,389.292236 
	C125.733803,393.572205 123.302612,395.457092 118.818565,395.120392 
	C116.334106,394.933838 113.822182,395.137634 111.323029,395.117340 
	C104.314308,395.060455 103.714203,394.363190 106.200546,388.010071 
	C112.272484,372.494934 118.480263,357.032867 124.652794,341.557190 
	C131.997742,323.142120 139.471130,304.777069 146.641922,286.294556 
	C148.394867,281.776398 150.862503,279.453217 155.859421,279.866547 
	C159.335480,280.154022 162.859497,280.068420 166.350998,279.908112 
	C170.368942,279.723663 173.114349,281.219574 174.525467,285.485535 
z"/>
<path fill="#010101" opacity="1.000000" stroke="none" 
	d="
M506.793091,294.204681 
	C528.423035,325.020538 549.850159,355.539856 571.270386,386.063995 
	C572.130493,387.289703 573.020020,388.510162 573.730042,389.822754 
	C575.183472,392.509674 574.510986,394.629791 571.346008,394.786072 
	C566.036377,395.048248 560.641174,395.297333 555.409729,394.597351 
	C553.225464,394.305054 550.875122,391.917603 549.437073,389.889496 
	C530.080566,362.591125 510.884644,335.178955 491.617676,307.816986 
	C486.729248,300.874756 481.636353,294.074188 476.860413,287.056763 
	C475.859009,285.585327 475.151855,283.237488 475.620789,281.691315 
	C475.908936,280.741211 478.656189,280.398315 480.353302,280.036194 
	C492.943604,277.349670 501.392090,282.573364 506.793091,294.204681 
z"/>
<path fill="#010101" opacity="1.000000" stroke="none" 
	d="
M792.359985,313.664154 
	C785.923584,304.734680 779.615906,296.151642 773.555115,287.397705 
	C772.459900,285.815796 771.617676,283.304626 772.110596,281.656891 
	C772.411865,280.650116 775.468567,280.058350 777.314880,279.987579 
	C792.887390,279.390778 792.865845,279.456299 801.599426,291.925415 
	C823.842224,323.681702 846.128845,355.407410 868.305115,387.210022 
	C869.446228,388.846466 870.705627,391.496368 870.110352,392.923920 
	C869.569275,394.221344 866.621033,394.893005 864.648865,395.128845 
	C861.530273,395.501770 858.317261,395.050964 855.186829,395.368561 
	C851.360657,395.756805 848.935852,394.091858 846.852905,391.116394 
	C833.875000,372.578156 820.824463,354.090790 807.798523,335.586151 
	C802.722717,328.375305 797.648376,321.163422 792.359985,313.664154 
z"/>
<path fill="#010101" opacity="1.000000" stroke="none" 
	d="
M720.906677,355.000000 
	C720.892822,366.326691 720.918945,377.153625 720.850098,387.979980 
	C720.809570,394.345764 720.068359,395.292297 713.629211,395.286987 
	C699.637268,395.275452 700.023376,398.148468 700.034912,382.286285 
	C700.057739,350.972229 700.027466,319.658081 700.021484,288.343994 
	C700.019897,280.319824 700.388916,279.959747 708.540405,279.938416 
	C720.829712,279.906311 720.841736,279.906281 720.856567,292.038239 
	C720.882019,312.858826 720.890869,333.679413 720.906677,355.000000 
z"/>
<path fill="#010101" opacity="1.000000" stroke="none" 
	d="
M907.076050,379.991821 
	C907.069031,381.322235 907.172180,382.172150 907.039917,382.983673 
	C906.422363,386.772736 906.764404,393.051544 904.872742,393.826660 
	C900.586914,395.582947 895.141296,395.045197 890.274719,394.493103 
	C888.963196,394.344330 887.135742,390.827179 887.078308,388.812531 
	C886.676086,374.682739 886.572449,360.541504 886.571228,346.403931 
	C886.569458,326.765015 886.717834,307.125977 886.850708,287.487305 
	C886.896851,280.662903 887.553528,280.011749 894.287903,279.981110 
	C907.963623,279.918854 907.058960,279.033539 907.059692,292.608246 
	C907.061340,321.570038 907.071289,350.531799 907.076050,379.991821 
z"/>
<path fill="#010101" opacity="1.000000" stroke="none" 
	d="
M851.172241,303.000061 
	C851.180420,296.843201 851.257751,291.185364 851.176575,285.529785 
	C851.123596,281.834747 852.635254,279.896667 856.477173,279.974518 
	C859.803162,280.041931 863.132141,280.037262 866.458557,279.985992 
	C869.904907,279.932892 871.795044,281.424072 871.791443,285.006744 
	C871.762146,314.122437 871.742371,343.238129 871.689209,372.353790 
	C871.688110,372.954620 871.320618,373.554810 870.774231,375.224152 
	C868.585999,372.319641 866.826416,370.067505 865.154480,367.752014 
	C851.165283,348.378265 851.173950,348.374756 851.197327,324.464142 
	C851.204163,317.476105 851.182617,310.488068 851.172241,303.000061 
z"/>
<path fill="#010101" opacity="1.000000" stroke="none" 
	d="
M474.353943,358.835663 
	C474.344238,339.305145 474.344238,320.215363 474.344238,300.093536 
	C475.816650,301.360504 476.633667,301.826569 477.124786,302.522583 
	C482.404236,310.004730 487.759827,317.439301 492.786438,325.089355 
	C494.072174,327.046112 494.860413,329.711121 494.879242,332.058685 
	C495.030243,350.874603 494.845734,369.693146 494.989868,388.509155 
	C495.028931,393.609192 492.784698,395.086456 488.018738,395.104095 
	C474.756042,395.153137 474.735382,395.290680 474.555420,382.231689 
	C474.449982,374.580475 474.424866,366.928192 474.353943,358.835663 
z"/>
<path fill="#010101" opacity="1.000000" stroke="none" 
	d="
M575.151550,313.000000 
	C575.151062,333.382660 575.151062,353.265320 575.151062,373.070465 
	C573.897400,373.178192 573.381958,373.344818 573.288757,373.213013 
	C567.451538,364.954285 561.520142,356.756042 555.955750,348.315948 
	C554.895081,346.707123 555.067810,344.135345 555.059265,342.006287 
	C554.985596,323.703522 554.980164,305.400360 555.001343,287.097351 
	C555.008789,280.672913 555.654236,280.050934 562.268127,280.002441 
	C576.019409,279.901642 575.112610,279.061035 575.102844,292.533081 
	C575.098022,299.188721 575.134338,305.844360 575.151550,313.000000 
z"/>
<path fill="#010101" opacity="1.000000" stroke="none" 
	d="
M771.020508,371.999939 
	C771.022034,348.301910 771.022034,325.103851 771.022034,301.905792 
	C771.571228,301.739899 772.120483,301.574036 772.669678,301.408142 
	C774.762878,304.281769 776.897827,307.126007 778.942383,310.033905 
	C791.149658,327.395782 791.139038,327.400696 791.113525,348.433685 
	C791.097595,361.585785 791.133850,374.738098 791.068970,387.889923 
	C791.037231,394.320679 790.282227,394.990265 783.811035,395.114471 
	C771.025085,395.359863 771.024597,395.359863 771.017700,382.489014 
	C771.015930,379.159332 771.018494,375.829620 771.020508,371.999939 
z"/>
<path fill="#212224" opacity="1.000000" stroke="none" 
	d="
M942.507629,309.516235 
	C942.501038,309.492249 942.514221,309.540192 942.507629,309.516235 
z"/>
<path fill="#212224" opacity="1.000000" stroke="none"
	d="
M667.018188,345.861908
	C663.323181,366.216431 652.792297,375.654266 632.697205,376.720398
	C626.880310,377.029022 621.035400,376.800659 615.203430,376.836670
	C611.831482,376.857483 610.562439,375.244720 610.585754,371.859253
	C610.738464,349.696045 610.734070,327.531830 610.837097,305.368195
	C610.866821,298.970947 611.177124,298.684967 617.674866,298.682159
	C624.986450,298.678986 632.406738,298.038086 639.586121,299.049042
	C652.824036,300.913055 662.136047,308.564270 665.165161,321.748474
	C666.919800,329.385590 666.506836,337.520752 667.018188,345.861908
z"/>
</svg>